<svg width="584" height="528" viewBox="0 0 584 528" fill="none" xmlns="http://www.w3.org/2000/svg">
<g clip-path="url(#clip0_487_118)">
<path fill-rule="evenodd" clip-rule="evenodd" d="M563 266C563 299.881 556.327 333.43 543.361 364.732C530.395 396.034 511.391 424.476 487.434 448.434C463.476 472.391 435.034 491.395 403.732 504.361C372.43 517.327 338.881 524 305 524C271.119 524 237.57 517.327 206.268 504.361C174.966 491.395 146.524 472.391 122.566 448.434C98.6089 424.476 79.6048 396.034 66.6391 364.732C53.6734 333.43 47 299.881 47 266C47 232.119 53.6734 198.57 66.6391 167.268C79.6048 135.966 98.6089 107.524 122.566 83.5665C146.524 59.6089 174.966 40.6048 206.268 27.6391C237.57 14.6734 271.119 8 305 8C338.881 8 372.43 14.6734 403.732 27.6391C435.034 40.6048 463.476 59.6089 487.434 83.5665C511.391 107.524 530.395 135.966 543.361 167.268C556.327 198.57 563 232.119 563 266Z" fill="black"/>
<path fill-rule="evenodd" clip-rule="evenodd" d="M545 266C545 329.652 519.714 390.697 474.706 435.706C429.697 480.714 368.652 506 305 506C241.348 506 180.303 480.714 135.294 435.706C90.2856 390.697 65 329.652 65 266C65 202.348 90.2856 141.303 135.294 96.2944C180.303 51.2856 241.348 26 305 26C368.652 26 429.697 51.2856 474.706 96.2944C519.714 141.303 545 202.348 545 266Z" fill="#F9FFBD"/>
<path fill-rule="evenodd" clip-rule="evenodd" d="M449 266C449 304.191 433.829 340.818 406.823 367.823C379.818 394.829 343.191 410 305 410C266.809 410 230.182 394.829 203.177 367.823C176.171 340.818 161 304.191 161 266C161 227.809 176.171 191.182 203.177 164.177C230.182 137.171 266.809 122 305 122C343.191 122 379.818 137.171 406.823 164.177C433.829 191.182 449 227.809 449 266Z" fill="black"/>
<path fill-rule="evenodd" clip-rule="evenodd" d="M431 266C431 282.547 427.741 298.931 421.409 314.218C415.077 329.505 405.796 343.395 394.095 355.095C382.395 366.796 368.505 376.077 353.218 382.409C337.931 388.741 321.547 392 305 392C288.453 392 272.069 388.741 256.782 382.409C241.495 376.077 227.605 366.796 215.905 355.095C204.204 343.395 194.923 329.505 188.591 314.218C182.259 298.931 179 282.547 179 266C179 249.453 182.259 233.069 188.591 217.782C194.923 202.495 204.204 188.605 215.905 176.905C227.605 165.204 241.495 155.923 256.782 149.591C272.069 143.259 288.453 140 305 140C321.547 140 337.931 143.259 353.218 149.591C368.505 155.923 382.395 165.204 394.095 176.905C405.796 188.605 415.077 202.495 421.409 217.782C427.741 233.069 431 249.453 431 266Z" fill="#A70D1D"/>
<path d="M283.57 488.806C274.862 488.295 275.021 488.441 271.528 477.821C269.764 472.458 267.989 467.704 267.583 467.257C267.177 466.811 263.519 470.06 259.454 474.478L252.062 482.511L243.566 479.337C238.893 477.591 234.845 475.992 234.571 475.784C234.008 475.356 239.213 470.703 251.319 460.81C255.856 457.103 259.569 453.364 259.569 452.502C259.569 451.639 257.534 444.487 255.047 436.607C252.56 428.728 250.647 422.166 250.797 422.024C250.947 421.883 254.895 423.195 259.57 424.941L268.07 428.115L270.501 435.023L272.933 441.931L277.609 436.627L282.285 431.323L291.177 432.566C296.068 433.25 300.385 433.994 300.77 434.218C301.155 434.442 297.723 438.551 293.144 443.348C288.564 448.145 283.645 453.474 282.212 455.192L279.607 458.314L285.539 471.999C293.343 490.002 293.235 489.614 290.385 489.314C289.112 489.179 286.045 488.951 283.57 488.806ZM328.26 486.878C327.754 486.059 325.167 468.642 322.004 444.751C321.106 437.977 320.628 432.177 320.941 431.864C321.254 431.551 327.663 429.994 335.183 428.403C348.19 425.652 349.106 425.583 353.99 427.003C362.876 429.586 366.57 435.033 366.57 445.553C366.57 457.173 363.971 460.41 352.233 463.408C347.923 464.509 344.232 465.574 344.032 465.774C343.831 465.975 344.267 470.173 344.999 475.104C345.901 481.17 346 484.279 345.305 484.719C344.74 485.076 341.34 485.682 337.75 486.067C334.159 486.451 330.67 486.977 329.997 487.236C329.323 487.494 328.542 487.333 328.26 486.878ZM350.32 449.845C352.161 447.403 351.841 443.125 349.669 441.159C348.051 439.695 347.158 439.603 343.669 440.543C339.255 441.731 338.859 442.764 340.216 449.549C340.845 452.698 340.963 452.763 344.966 452.141C347.223 451.79 349.632 450.757 350.32 449.845ZM191.356 452.719C183.814 447.412 177.627 442.579 177.606 441.98C177.575 441.052 206.082 400.742 208.582 398.179C209.219 397.526 229.773 411.068 237.46 417.205C237.935 417.584 230.45 428.569 229.716 428.569C229.429 428.569 226.617 426.544 223.466 424.069C220.316 421.594 217.281 419.569 216.722 419.569C216.163 419.569 214.726 420.946 213.528 422.629C211.087 426.056 210.782 425.536 218.313 430.802C220.097 432.049 221.559 433.448 221.563 433.91C221.572 434.996 216.259 442.52 215.463 442.548C215.13 442.56 212.795 440.994 210.273 439.069C207.752 437.144 205.297 435.569 204.818 435.569C204.038 435.569 199.57 440.93 199.57 441.865C199.57 442.072 202.484 444.228 206.046 446.656C209.608 449.083 212.533 451.48 212.546 451.982C212.579 453.261 206.502 462.591 205.715 462.469C205.36 462.415 198.899 458.027 191.356 452.719ZM393.785 439.062C385.417 426.683 378.57 416.176 378.57 415.712C378.57 414.784 396.793 400.393 402.487 396.825C409.984 392.127 420.184 395.078 426.14 403.669C428.622 407.249 429.061 408.823 429.01 413.982C428.978 417.33 428.612 420.991 428.197 422.117C427.532 423.921 428.098 424.371 432.966 425.905C438.723 427.72 447.57 431.414 447.57 432.004C447.57 432.191 444.476 434.843 440.696 437.898L433.822 443.452L426.446 439.537C418.698 435.425 415.502 434.741 413.772 436.826C413.005 437.75 414.077 439.893 417.817 444.913C420.64 448.703 422.477 452.039 421.942 452.407C421.413 452.771 418.484 454.982 415.434 457.319C412.384 459.657 409.688 461.569 409.444 461.569C409.201 461.569 402.154 451.441 393.785 439.062ZM409.873 422.932C413.828 419.091 414.028 417 410.796 413.319C408.573 410.787 405.528 411.211 401.839 414.568L398.608 417.507L401.339 422.007C402.841 424.481 404.533 426.52 405.099 426.538C405.665 426.555 407.813 424.933 409.873 422.932ZM451.037 392.511C440.055 383.679 430.415 375.809 429.615 375.021C428.346 373.772 429.366 371.806 437.615 359.599C442.815 351.904 447.348 345.599 447.689 345.589C448.03 345.578 450.622 347.412 453.451 349.664L458.593 353.758L454.007 360.317L449.422 366.877L452.246 369.187C453.799 370.458 455.568 371.514 456.178 371.533C456.788 371.553 458.93 369.094 460.938 366.069C462.947 363.044 464.841 360.569 465.147 360.569C465.621 360.569 471.325 364.525 473.884 366.628C474.332 366.996 472.86 369.922 470.613 373.129L466.528 378.961L469.299 381.229C470.823 382.477 472.332 383.514 472.653 383.533C473.121 383.562 478.276 376.593 481.724 371.27C482.56 369.981 492.78 377.382 492.37 378.979C491.977 380.506 472.231 408.542 471.537 408.557C471.244 408.564 462.019 401.343 451.037 392.511ZM499.383 345.847L494.719 341.069L499.151 336.215C504.429 330.434 505.401 327.487 503.157 324.062C500.789 320.448 496.935 320.732 494.773 324.68C489.262 334.742 484.729 338.569 478.323 338.569C466.591 338.569 458.843 327.205 461.581 314.013C462.738 308.443 470.856 294.569 472.958 294.569C473.621 294.569 475.92 296.368 478.066 298.566L481.969 302.562L478.656 305.98C476.211 308.503 475.211 310.572 474.838 313.883C474.389 317.867 474.617 318.554 476.884 320.04C480.477 322.394 483.185 320.68 486.054 314.235C489.251 307.055 492.41 304.387 498.396 303.812C504.039 303.27 508.378 304.963 514.166 309.966C517.591 312.927 517.954 313.738 518.359 319.328C518.675 323.704 518.21 327.395 516.726 332.28C514.564 339.398 508.085 349.847 505.527 350.339C504.714 350.496 501.949 348.474 499.383 345.847ZM111.204 279.415C99.1776 278.456 89.1606 277.494 88.9439 277.277C88.0908 276.424 90.7756 245.763 92.1269 240.926C93.6818 235.359 98.5131 230.124 103.174 228.954C108.435 227.634 118.42 229.205 122.679 232.023C128.433 235.831 130.025 240.053 130.05 251.569L130.07 261.069C133.833 261.273 137.59 261.566 141.32 262.121C144.462 262.642 144.57 262.82 144.57 267.475C144.57 270.124 144.282 274.388 143.931 276.951L143.292 281.611L138.181 281.385C135.37 281.261 123.23 280.374 111.204 279.415ZM116.738 259.042C117.035 251.848 115.149 248.485 111.39 247.949C107.676 247.419 104.752 250.249 103.936 258.353L116.738 259.042ZM478.373 275.529C471.418 271.855 467.558 264.393 467.585 254.67C467.6 249.549 469.676 238.13 470.797 237.009C471.054 236.751 473.778 237.691 476.849 239.097L482.433 241.653L481.001 245.079C478.784 250.386 479.166 255.257 482.024 258.115C484.849 260.94 485.511 261.064 488.01 259.237C489.332 258.27 490.011 256.001 490.48 250.986C491.2 243.287 493.423 238.678 497.609 236.205C502.976 233.035 514.902 234.711 519.793 239.324C525.108 244.336 527.514 257.537 525.067 268.257C522.764 278.345 522.889 278.253 515.43 275.374C511.463 273.843 509.132 272.383 509.234 271.494C509.324 270.711 510.335 267.499 511.48 264.357C513.836 257.888 513.14 254.606 509.013 252.726C505.113 250.949 502.752 253.863 501.655 261.807C501.114 265.718 499.861 269.756 498.667 271.433C494.421 277.396 485.368 279.223 478.373 275.529ZM98.7706 195.104C98.2901 194.623 107.483 176.569 108.208 176.569C119.402 181.694 129.331 189.259 140.427 194.569C145.069 188.433 148.317 181.303 152.198 174.655C152.558 174.248 166.57 183.579 166.57 184.225C166.57 185.12 149.026 219.565 148.583 219.54C131.968 211.443 115.106 203.764 98.7706 195.104ZM164.133 155.319C159.564 145.832 153.504 133.137 150.667 127.107L145.509 116.145L153.289 108.428L161.07 100.712L186.57 114.098C200.595 121.46 212.52 127.656 213.07 127.867C213.62 128.077 211.392 131.359 208.119 135.16C204.847 138.96 202.069 142.222 201.948 142.408C201.826 142.594 199.779 141.618 197.398 140.239L193.07 137.732L186.807 144.572L180.544 151.412L182.687 155.043C184.2 157.608 184.571 159.221 183.949 160.538C183.01 162.53 173.844 172.569 172.965 172.569C172.676 172.569 168.702 164.807 164.133 155.319ZM178.411 132.25L180.751 129.747L175.031 126.088C171.659 123.931 168.943 122.796 168.414 123.325C167.886 123.853 168.658 126.706 170.294 130.274C173.306 136.842 173.966 137.003 178.411 132.25ZM375.57 120.071C372.545 118.171 369.649 116.466 369.135 116.282C368.621 116.097 372.535 108.178 377.833 98.684L387.465 81.4219L382.517 78.3462C379.796 76.6545 377.57 74.7133 377.57 74.0322C377.57 72.6644 383.526 59.5694 384.148 59.5694C385.495 59.5694 419.57 79.1005 419.57 79.8725C419.57 80.8321 414.061 91.0189 412.315 93.2876C411.601 94.2161 410.188 93.9028 406.374 91.9704C403.622 90.5759 401.265 89.5777 401.136 89.7522C401.007 89.9267 396.889 97.593 391.985 106.789C387.082 115.984 382.62 123.511 382.07 123.516C381.52 123.521 378.595 121.97 375.57 120.071ZM223.2 93.8194C218.378 79.1069 214.225 66.5769 213.97 65.9749C213.703 65.3442 217.208 63.5471 222.243 61.7338L230.979 58.5872L233.524 60.8692C234.924 62.1242 239.445 66.2868 243.57 70.1193C252.005 77.956 258.416 83.0561 259.044 82.4282C259.275 82.1971 258.328 78.1969 256.938 73.5388C255.549 68.8806 253.581 62.2628 252.565 58.8325C251.55 55.4022 251.032 52.4015 251.416 52.1644C253.282 51.011 268.132 47.7406 268.69 48.36C269.351 49.0931 281.658 99.1346 281.922 102.16C282.033 103.443 280.226 104.436 274.57 106.197C270.445 107.481 266.733 108.54 266.322 108.55C265.911 108.561 261.186 104.616 255.822 99.7837C245.932 90.874 240.784 87.0222 239.92 87.8863C239.657 88.1484 241.329 94.2915 243.635 101.538C245.964 108.856 247.436 115.053 246.948 115.479C245.937 116.362 234.337 120.569 232.915 120.569C232.394 120.569 228.022 108.532 223.2 93.8194ZM321.245 105.55C314.742 104.562 309.195 103.528 308.919 103.252C308.31 102.643 313.269 46.537 313.996 45.8096C314.46 45.3459 347.599 50.2658 348.225 50.8911C348.485 51.1516 345.596 62.8509 345.16 63.3041C345.035 63.4331 341.595 62.9025 337.514 62.125C333.433 61.3474 329.937 60.8687 329.745 61.0611C329.212 61.5943 327.638 68.9707 327.983 69.3164C328.15 69.4831 331.163 70.1158 334.678 70.7224C338.193 71.3289 341.21 71.9451 341.381 72.0917C341.552 72.2382 341.116 75.1474 340.411 78.5565L339.131 84.7549L335.6 84.1888C333.659 83.8774 330.607 83.3294 328.82 82.971C325.589 82.3233 325.569 82.3442 325.42 86.4444C325.337 88.7132 325.225 91.1319 325.17 91.8194C325.104 92.6451 327.446 93.3264 332.07 93.8264C341.858 94.885 341.424 94.4839 340.084 101.226C338.996 106.702 338.739 107.078 335.997 107.207C334.387 107.283 327.749 106.537 321.245 105.55Z" fill="black"/>
<path fill-rule="evenodd" clip-rule="evenodd" d="M529.469 89.7186C492.447 89.1229 449.135 106.921 410.062 129.469C362.131 157.129 320.615 191.964 304.812 209.312C288.645 205.957 260.322 210.801 234.812 218.5C221.99 222.37 209.895 226.952 200.469 231.625C191.042 236.298 184.248 240.978 182.031 245.344L181.688 246.031L182.469 246.062C205.64 247.166 231.819 251.677 243.125 267.031C234.411 282.862 232.359 284.36 222.562 301.781L222.406 302.062L222.594 302.312C228.334 310.932 232.784 317.204 240.625 326.594L240.844 326.875L241.156 326.75C260.327 320.116 260.976 320.315 277.75 314.719C281.41 317.255 283.178 323.049 283.594 330.437C284.016 337.944 283.106 347.017 281.75 355.656C280.394 364.296 278.584 372.518 277.25 378.406C276.583 381.35 276.043 383.708 275.719 385.25C275.557 386.021 275.443 386.567 275.406 386.937C275.397 387.03 275.404 387.104 275.406 387.187C275.408 387.271 275.37 387.353 275.469 387.531C275.518 387.62 275.666 387.743 275.844 387.781C276.022 387.819 276.144 387.765 276.219 387.719C276.289 387.675 276.312 387.66 276.344 387.625C279.374 386.374 285.149 382.146 292.531 375.625C299.981 369.044 308.964 360.163 317.938 349.844C335.834 329.264 353.716 302.928 359.344 277.469C365.392 274.672 380.524 266.192 400.031 253.844C419.681 241.406 446.396 228.459 469.514 210.41C492.631 192.361 512.155 169.216 528.469 149.656C544.782 130.096 555.157 110.78 554.312 93.6874V93.3436L553.969 93.2499C546.222 90.9889 538.012 89.8561 529.469 89.7186Z" fill="#80F6ED" stroke="black" stroke-width="2" stroke-linecap="round" stroke-linejoin="round"/>
<path fill-rule="evenodd" clip-rule="evenodd" d="M217.356 273.778C217.356 275.303 216.919 276.908 215.737 277.685L6.3606 415.441L207.921 269.87C209.068 269.042 210.303 268.25 211.829 268.25C213.354 268.25 214.736 268.87 215.737 269.87C216.737 270.87 217.356 272.252 217.356 273.778Z" fill="black"/>
<path fill-rule="evenodd" clip-rule="evenodd" d="M214.62 316.379C214.62 318.206 214.128 320.179 212.68 321.06L61.4343 413.069L203.318 311.697C204.697 310.712 206.172 309.757 207.999 309.757C209.827 309.757 211.482 310.499 212.68 311.697C213.879 312.896 214.62 314.551 214.62 316.379Z" fill="black"/>
<path fill-rule="evenodd" clip-rule="evenodd" d="M188.307 372.542C188.307 374.061 187.882 375.675 186.695 376.433L-5.27759 499.055L178.913 368.652C180.063 367.838 181.285 367.039 182.804 367.039C184.323 367.039 185.699 367.655 186.695 368.652C187.691 369.648 188.307 371.024 188.307 372.542Z" fill="black"/>
</g>
<defs>
<clipPath id="clip0_487_118">
<rect width="584" height="528" fill="white"/>
</clipPath>
</defs>
</svg>
